# This file uses centimeters as units for non-parametric coordinates.

mtllib missile.mtl
g default
v 1.928579 6.460564 -3.312359
v 1.164560 7.959957 -3.296984
v -0.025428 9.149882 -3.284783
v -1.524900 9.913861 -3.276949
v -3.187077 10.177110 -3.274250
v -4.849255 9.913861 -3.276949
v -6.348726 9.149881 -3.284783
v -7.538713 7.959956 -3.296984
v -8.302732 6.460564 -3.312359
v -8.565995 4.798474 -3.329402
v -8.302732 3.136385 -3.346445
v -7.538713 1.636992 -3.361819
v -6.348725 0.447068 -3.374020
v -4.849254 -0.316910 -3.381854
v -3.187078 -0.580159 -3.384553
v -1.524901 -0.316910 -3.381854
v -0.025430 0.447069 -3.374020
v 1.164557 1.636993 -3.361819
v 1.928576 3.136385 -3.346445
v 2.191838 4.798474 -3.329402
v -3.187077 4.701072 6.169646
vt 0.737764 0.172746
vt 0.702254 0.103054
vt 0.646946 0.047746
vt 0.577254 0.012236
vt 0.500000 -0.000000
vt 0.422746 0.012236
vt 0.353054 0.047746
vt 0.297746 0.103054
vt 0.262236 0.172746
vt 0.250000 0.250000
vt 0.262236 0.327254
vt 0.297746 0.396946
vt 0.353054 0.452254
vt 0.422746 0.487764
vt 0.500000 0.500000
vt 0.577254 0.487764
vt 0.646946 0.452254
vt 0.702254 0.396946
vt 0.737764 0.327254
vt 0.750000 0.250000
vt 0.250000 0.500000
vt 0.275000 0.500000
vt 0.300000 0.500000
vt 0.325000 0.500000
vt 0.350000 0.500000
vt 0.375000 0.500000
vt 0.400000 0.500000
vt 0.425000 0.500000
vt 0.450000 0.500000
vt 0.475000 0.500000
vt 0.500000 0.500000
vt 0.525000 0.500000
vt 0.550000 0.500000
vt 0.575000 0.500000
vt 0.600000 0.500000
vt 0.625000 0.500000
vt 0.650000 0.500000
vt 0.675000 0.500000
vt 0.700000 0.500000
vt 0.725000 0.500000
vt 0.750000 0.500000
vt 0.500000 1.000000
vn 0.000000 0.010253 -0.999947
vn 0.000000 0.010253 -0.999947
vn 0.000000 0.010253 -0.999947
vn 0.000000 0.010253 -0.999947
vn 0.000000 0.010253 -0.999947
vn 0.000000 0.010253 -0.999947
vn 0.000000 0.010253 -0.999947
vn 0.000000 0.010253 -0.999947
vn 0.000000 0.010253 -0.999947
vn 0.000000 0.010253 -0.999947
vn 0.000000 0.010253 -0.999947
vn 0.000000 0.010253 -0.999947
vn 0.000000 0.010253 -0.999947
vn 0.000000 0.010253 -0.999947
vn 0.000000 0.010253 -0.999947
vn 0.000000 0.010253 -0.999947
vn 0.000000 0.010253 -0.999947
vn 0.000000 0.010253 -0.999947
vn 0.000000 0.010253 -0.999947
vn 0.000000 0.010253 -0.999947
vn 0.827596 0.263835 0.495456
vn 0.703995 0.506403 0.497943
vn 0.000001 -0.010253 0.999947
vn 0.511482 0.698906 0.499917
vn 0.268902 0.822500 0.501184
vn 0.000000 0.865088 0.501621
vn -0.268902 0.822500 0.501184
vn -0.511482 0.698906 0.499917
vn -0.703995 0.506403 0.497943
vn -0.827596 0.263836 0.495455
vn -0.870186 -0.005052 0.492698
vn -0.827596 -0.273940 0.489941
vn -0.703995 -0.516507 0.487454
vn -0.511482 -0.709010 0.485480
vn -0.268902 -0.832604 0.484213
vn 0.000000 -0.875192 0.483776
vn 0.268902 -0.832604 0.484213
vn 0.511482 -0.709010 0.485480
vn 0.703995 -0.516507 0.487454
vn 0.827596 -0.273940 0.489941
vn 0.870186 -0.005053 0.492698
s off
g pCone1
usemtl initialShadingGroup
f 1/1/1 20/20/2 19/19/3 18/18/4 17/17/5 16/16/6 15/15/7 14/14/8 13/13/9 12/12/10 11/11/11 10/10/12 9/9/13 8/8/14 7/7/15 6/6/16 5/5/17 4/4/18 3/3/19 2/2/20
s 1
f 1/21/21 2/22/22 21/42/23
f 2/22/22 3/23/24 21/42/23
f 3/23/24 4/24/25 21/42/23
f 4/24/25 5/25/26 21/42/23
f 5/25/26 6/26/27 21/42/23
f 6/26/27 7/27/28 21/42/23
f 7/27/28 8/28/29 21/42/23
f 8/28/29 9/29/30 21/42/23
f 9/29/30 10/30/31 21/42/23
f 10/30/31 11/31/32 21/42/23
f 11/31/32 12/32/33 21/42/23
f 12/32/33 13/33/34 21/42/23
f 13/33/34 14/34/35 21/42/23
f 14/34/35 15/35/36 21/42/23
f 15/35/36 16/36/37 21/42/23
f 16/36/37 17/37/38 21/42/23
f 17/37/38 18/38/39 21/42/23
f 18/38/39 19/39/40 21/42/23
f 19/39/40 20/40/41 21/42/23
f 20/40/41 1/41/21 21/42/23
g default
v 2.082754 2.336429 -3.346370
v 1.016052 0.701890 -3.413211
v -0.503659 -0.522638 -3.484282
v -2.327619 -1.217287 -3.552627
v -4.277286 -1.314062 -3.611555
v -6.161813 -0.803491 -3.655299
v -7.796729 0.264451 -3.679575
v -9.021997 1.785224 -3.682009
v -9.717680 3.609964 -3.662361
v -9.815680 5.560053 -3.622555
v -9.306403 7.444603 -3.566487
v -8.239701 9.079142 -3.499646
v -6.719991 10.303669 -3.428575
v -4.896031 10.998318 -3.360230
v -2.946365 11.095094 -3.301302
v -1.061839 10.584522 -3.257558
v 0.573076 9.516581 -3.233282
v 1.798344 7.995809 -3.230849
v 2.494028 6.171069 -3.250496
v 2.592027 4.220980 -3.290302
v 2.475137 2.631020 -16.812332
v 1.408435 0.996481 -16.879173
v -0.111276 -0.228046 -16.950245
v -1.935236 -0.922696 -17.018590
v -3.884903 -1.019471 -17.077518
v -5.769430 -0.508899 -17.121261
v -7.404346 0.559043 -17.145538
v -8.629614 2.079815 -17.147971
v -9.325297 3.904555 -17.128323
v -9.423297 5.854645 -17.088517
v -8.914020 7.739195 -17.032449
v -7.847318 9.373734 -16.965609
v -6.327608 10.598260 -16.894537
v -4.503648 11.292910 -16.826192
v -2.553982 11.389685 -16.767264
v -0.669456 10.879113 -16.723521
v 0.965459 9.811173 -16.699244
v 2.190728 8.290401 -16.696811
v 2.886411 6.465661 -16.716459
v 2.984411 4.515572 -16.756265
v -3.611826 4.890517 -3.456429
v -3.219442 5.185108 -16.922391
vt 0.648603 0.107966
vt 0.626409 0.064408
vt 0.591842 0.029841
vt 0.548284 0.007647
vt 0.500000 -0.000000
vt 0.451716 0.007647
vt 0.408159 0.029841
vt 0.373591 0.064409
vt 0.351397 0.107966
vt 0.343750 0.156250
vt 0.351397 0.204534
vt 0.373591 0.248091
vt 0.408159 0.282659
vt 0.451716 0.304853
vt 0.500000 0.312500
vt 0.548284 0.304853
vt 0.591841 0.282659
vt 0.626409 0.248091
vt 0.648603 0.204534
vt 0.656250 0.156250
vt 0.375000 0.312500
vt 0.387500 0.312500
vt 0.400000 0.312500
vt 0.412500 0.312500
vt 0.425000 0.312500
vt 0.437500 0.312500
vt 0.450000 0.312500
vt 0.462500 0.312500
vt 0.475000 0.312500
vt 0.487500 0.312500
vt 0.500000 0.312500
vt 0.512500 0.312500
vt 0.525000 0.312500
vt 0.537500 0.312500
vt 0.550000 0.312500
vt 0.562500 0.312500
vt 0.575000 0.312500
vt 0.587500 0.312500
vt 0.600000 0.312500
vt 0.612500 0.312500
vt 0.625000 0.312500
vt 0.375000 0.688440
vt 0.387500 0.688440
vt 0.400000 0.688440
vt 0.412500 0.688440
vt 0.425000 0.688440
vt 0.437500 0.688440
vt 0.450000 0.688440
vt 0.462500 0.688440
vt 0.475000 0.688440
vt 0.487500 0.688440
vt 0.500000 0.688440
vt 0.512500 0.688440
vt 0.525000 0.688440
vt 0.537500 0.688440
vt 0.550000 0.688440
vt 0.562500 0.688440
vt 0.575000 0.688440
vt 0.587500 0.688440
vt 0.600000 0.688440
vt 0.612500 0.688440
vt 0.625000 0.688440
vt 0.648603 0.795466
vt 0.626409 0.751908
vt 0.591842 0.717341
vt 0.548284 0.695147
vt 0.500000 0.687500
vt 0.451716 0.695147
vt 0.408159 0.717341
vt 0.373591 0.751909
vt 0.351397 0.795466
vt 0.343750 0.843750
vt 0.351397 0.892034
vt 0.373591 0.935591
vt 0.408159 0.970159
vt 0.451716 0.992353
vt 0.500000 1.000000
vt 0.548284 0.992353
vt 0.591841 0.970159
vt 0.626409 0.935591
vt 0.648603 0.892034
vt 0.656250 0.843750
vt 0.500000 0.150000
vt 0.500000 0.837500
vn 0.912287 -0.409171 0.017632
vn 0.741399 -0.671029 0.006924
vn 0.741399 -0.671029 0.006924
vn 0.912287 -0.409171 0.017632
vn 0.497937 -0.867202 -0.004462
vn 0.497937 -0.867202 -0.004462
vn 0.205733 -0.978487 -0.015411
vn 0.205733 -0.978487 -0.015411
vn -0.106609 -0.993990 -0.024852
vn -0.106609 -0.993990 -0.024852
vn -0.408515 -0.912195 -0.031860
vn -0.408515 -0.912195 -0.031860
vn -0.670433 -0.741108 -0.035749
vn -0.670433 -0.741108 -0.035749
vn -0.866725 -0.497476 -0.036139
vn -0.866725 -0.497476 -0.036139
vn -0.978175 -0.205148 -0.032991
vn -0.978175 -0.205148 -0.032991
vn -0.993875 0.107262 -0.026614
vn -0.993875 0.107262 -0.026614
vn -0.912287 0.409172 -0.017632
vn -0.912287 0.409172 -0.017632
vn -0.741398 0.671029 -0.006924
vn -0.741398 0.671029 -0.006924
vn -0.497937 0.867202 0.004462
vn -0.497937 0.867202 0.004462
vn -0.205733 0.978487 0.015411
vn -0.205733 0.978487 0.015411
vn 0.106609 0.993990 0.024852
vn 0.106609 0.993990 0.024852
vn 0.408515 0.912195 0.031860
vn 0.408515 0.912195 0.031860
vn 0.670433 0.741108 0.035749
vn 0.670433 0.741108 0.035749
vn 0.866724 0.497477 0.036139
vn 0.866724 0.497477 0.036139
vn 0.978175 0.205148 0.032991
vn 0.978175 0.205148 0.032991
vn 0.993875 -0.107261 0.026614
vn 0.993875 -0.107261 0.026614
vn -0.029120 -0.021862 0.999337
vn -0.029120 -0.021862 0.999337
vn -0.029120 -0.021862 0.999337
vn -0.029120 -0.021862 0.999337
vn -0.029120 -0.021862 0.999337
vn -0.029120 -0.021862 0.999337
vn -0.029120 -0.021862 0.999337
vn -0.029120 -0.021862 0.999337
vn -0.029120 -0.021862 0.999337
vn -0.029120 -0.021862 0.999337
vn -0.029120 -0.021862 0.999337
vn -0.029120 -0.021862 0.999337
vn -0.029120 -0.021862 0.999337
vn -0.029120 -0.021862 0.999337
vn -0.029120 -0.021862 0.999337
vn -0.029120 -0.021862 0.999337
vn -0.029120 -0.021862 0.999337
vn -0.029120 -0.021862 0.999337
vn -0.029120 -0.021862 0.999337
vn -0.029120 -0.021862 0.999337
vn -0.029120 -0.021862 0.999337
vn 0.029120 0.021862 -0.999337
vn 0.029120 0.021862 -0.999337
vn 0.029120 0.021862 -0.999337
vn 0.029120 0.021862 -0.999337
vn 0.029120 0.021862 -0.999337
vn 0.029120 0.021862 -0.999337
vn 0.029120 0.021862 -0.999337
vn 0.029120 0.021862 -0.999337
vn 0.029120 0.021862 -0.999337
vn 0.029120 0.021862 -0.999337
vn 0.029120 0.021862 -0.999337
vn 0.029120 0.021862 -0.999337
vn 0.029120 0.021862 -0.999337
vn 0.029120 0.021863 -0.999337
vn 0.029120 0.021862 -0.999337
vn 0.029120 0.021862 -0.999337
vn 0.029120 0.021862 -0.999337
vn 0.029120 0.021862 -0.999337
vn 0.029120 0.021862 -0.999337
vn 0.029120 0.021862 -0.999337
vn 0.029120 0.021862 -0.999337
s 1
g pCylinder1
usemtl initialShadingGroup
f 22/63/42 23/64/43 43/85/44 42/84/45
f 23/64/43 24/65/46 44/86/47 43/85/44
f 24/65/46 25/66/48 45/87/49 44/86/47
f 25/66/48 26/67/50 46/88/51 45/87/49
f 26/67/50 27/68/52 47/89/53 46/88/51
f 27/68/52 28/69/54 48/90/55 47/89/53
f 28/69/54 29/70/56 49/91/57 48/90/55
f 29/70/56 30/71/58 50/92/59 49/91/57
f 30/71/58 31/72/60 51/93/61 50/92/59
f 31/72/60 32/73/62 52/94/63 51/93/61
f 32/73/62 33/74/64 53/95/65 52/94/63
f 33/74/64 34/75/66 54/96/67 53/95/65
f 34/75/66 35/76/68 55/97/69 54/96/67
f 35/76/68 36/77/70 56/98/71 55/97/69
f 36/77/70 37/78/72 57/99/73 56/98/71
f 37/78/72 38/79/74 58/100/75 57/99/73
f 38/79/74 39/80/76 59/101/77 58/100/75
f 39/80/76 40/81/78 60/102/79 59/101/77
f 40/81/78 41/82/80 61/103/81 60/102/79
f 41/82/80 22/83/42 42/104/45 61/103/81
s 2
f 23/44/82 22/43/83 62/125/84
f 24/45/85 23/44/82 62/125/84
f 25/46/86 24/45/85 62/125/84
f 26/47/87 25/46/86 62/125/84
f 27/48/88 26/47/87 62/125/84
f 28/49/89 27/48/88 62/125/84
f 29/50/90 28/49/89 62/125/84
f 30/51/91 29/50/90 62/125/84
f 31/52/92 30/51/91 62/125/84
f 32/53/93 31/52/92 62/125/84
f 33/54/94 32/53/93 62/125/84
f 34/55/95 33/54/94 62/125/84
f 35/56/96 34/55/95 62/125/84
f 36/57/97 35/56/96 62/125/84
f 37/58/98 36/57/97 62/125/84
f 38/59/99 37/58/98 62/125/84
f 39/60/100 38/59/99 62/125/84
f 40/61/101 39/60/100 62/125/84
f 41/62/102 40/61/101 62/125/84
f 22/43/83 41/62/102 62/125/84
s 3
f 42/123/103 43/122/104 63/126/105
f 43/122/104 44/121/106 63/126/105
f 44/121/106 45/120/107 63/126/105
f 45/120/107 46/119/108 63/126/105
f 46/119/108 47/118/109 63/126/105
f 47/118/109 48/117/110 63/126/105
f 48/117/110 49/116/111 63/126/105
f 49/116/111 50/115/112 63/126/105
f 50/115/112 51/114/113 63/126/105
f 51/114/113 52/113/114 63/126/105
f 52/113/114 53/112/115 63/126/105
f 53/112/115 54/111/116 63/126/105
f 54/111/116 55/110/117 63/126/105
f 55/110/117 56/109/118 63/126/105
f 56/109/118 57/108/119 63/126/105
f 57/108/119 58/107/120 63/126/105
f 58/107/120 59/106/121 63/126/105
f 59/106/121 60/105/122 63/126/105
f 60/105/122 61/124/123 63/126/105
f 61/124/123 42/123/103 63/126/105
